<?xml version="1.0" standalone="no"?>
<!DOCTYPE svg PUBLIC "-//W3C//DTD SVG 20010904//EN"
 "http://www.w3.org/TR/2001/REC-SVG-20010904/DTD/svg10.dtd">
<svg version="1.0" xmlns="http://www.w3.org/2000/svg"
 width="494.000000pt" height="494.000000pt" viewBox="0 0 494.000000 494.000000"
 preserveAspectRatio="xMidYMid meet">
<metadata>
Created by potrace 1.11, written by Peter Selinger 2001-2013
</metadata>
<g transform="translate(0.000000,494.000000) scale(0.100000,-0.100000)"
fill="#000000" stroke="none">
<path d="M1562 3830 c-209 -29 -484 -138 -682 -268 -100 -66 -278 -240 -339
-330 -90 -134 -99 -186 -50 -285 82 -162 205 -310 286 -343 42 -18 93 -13 180
17 31 10 57 18 59 17 1 -2 -27 -123 -62 -271 -83 -351 -124 -556 -131 -643
l-6 -72 43 -31 c72 -52 215 -94 249 -72 8 5 16 42 22 97 12 129 70 498 79 507
10 11 81 -25 150 -76 101 -74 262 -220 475 -427 227 -222 309 -289 424 -347
63 -33 86 -39 153 -42 94 -4 152 14 200 62 67 67 85 163 47 247 -38 83 -84
108 -95 51 -5 -22 -14 -31 -42 -39 -70 -21 -92 -22 -159 -12 -212 34 -486 210
-797 511 l-150 145 100 33 c205 68 380 169 506 294 107 106 184 241 224 392
26 98 24 289 -5 400 -29 108 -87 225 -155 312 -99 127 -192 172 -361 178 -55
2 -128 0 -163 -5z m355 -258 c74 -38 113 -123 113 -246 0 -259 -227 -635 -486
-805 -93 -61 -294 -166 -294 -153 0 29 61 274 126 510 84 305 85 317 26 357
-52 36 -153 67 -204 63 l-43 -3 3 -51 c2 -36 -13 -112 -53 -270 -31 -120 -58
-227 -61 -237 -5 -17 -15 -19 -88 -15 -68 2 -89 7 -119 28 -56 38 -71 75 -65
153 12 145 147 337 319 452 141 95 368 192 537 230 95 21 234 15 289 -13z"/>
<path d="M3392 3830 c-209 -29 -484 -138 -682 -268 -100 -66 -278 -240 -339
-330 -108 -161 -108 -201 6 -384 68 -110 159 -210 219 -238 51 -25 94 -23 191
11 31 10 57 18 59 17 1 -2 -27 -124 -62 -273 -83 -350 -125 -553 -131 -641
l-6 -72 43 -31 c70 -51 215 -94 248 -73 7 5 18 60 27 138 21 174 66 457 75
467 9 11 79 -24 145 -72 87 -63 284 -240 490 -441 220 -214 303 -282 414 -338
64 -31 87 -38 154 -41 56 -2 91 2 122 14 83 31 144 119 145 205 0 48 -35 135
-63 158 -24 20 -52 11 -55 -19 -2 -21 -12 -29 -45 -40 -93 -31 -215 -9 -372
66 -182 88 -356 219 -583 440 l-146 141 100 33 c428 142 684 404 745 764 24
144 -13 356 -87 497 -116 222 -238 307 -449 315 -55 2 -128 0 -163 -5z m354
-260 c103 -52 141 -207 95 -391 -59 -233 -261 -520 -461 -654 -105 -70 -300
-170 -300 -153 0 30 65 289 131 526 77 275 78 297 29 332 -51 36 -159 71 -209
68 l-46 -3 -1 -70 c-1 -48 -16 -126 -48 -250 -26 -99 -52 -197 -57 -218 l-10
-39 -83 4 c-68 2 -89 7 -119 28 -56 38 -71 75 -65 153 11 139 139 325 304 443
126 90 381 200 552 238 100 23 225 16 288 -14z"/>
</g>
</svg>
